<mxfile host="app.diagrams.net" agent="Mozilla/5.0 (Macintosh; Intel Mac OS X 10_15_7) AppleWebKit/537.36 (KHTML, like Gecko) Chrome/128.0.0.0 Safari/537.36" version="24.8.6">
  <diagram name="Page-1" id="iAo6kblZe0IO19qBv-we">
    <mxGraphModel dx="622" dy="398" grid="1" gridSize="10" guides="1" tooltips="1" connect="1" arrows="1" fold="1" page="1" pageScale="1" pageWidth="827" pageHeight="1169" math="0" shadow="0">
      <root>
        <mxCell id="0" />
        <mxCell id="1" parent="0" />
        <mxCell id="AgTzRdXakAWjJgixMaLe-2" value="" style="shape=flexArrow;endArrow=classic;html=1;rounded=0;fillColor=#dae8fc;strokeColor=#6c8ebf;" edge="1" parent="1">
          <mxGeometry width="50" height="50" relative="1" as="geometry">
            <mxPoint x="440" y="90" as="sourcePoint" />
            <mxPoint x="440" y="460" as="targetPoint" />
          </mxGeometry>
        </mxCell>
        <mxCell id="AgTzRdXakAWjJgixMaLe-6" value="" style="endArrow=classic;html=1;rounded=0;" edge="1" parent="1">
          <mxGeometry width="50" height="50" relative="1" as="geometry">
            <mxPoint x="355" y="104" as="sourcePoint" />
            <mxPoint x="435" y="104" as="targetPoint" />
          </mxGeometry>
        </mxCell>
        <mxCell id="AgTzRdXakAWjJgixMaLe-7" value="&lt;b&gt;&lt;font face=&quot;Verdana&quot;&gt;A&lt;/font&gt;&lt;/b&gt;" style="rounded=1;whiteSpace=wrap;html=1;fillColor=#fff2cc;strokeColor=#d6b656;" vertex="1" parent="1">
          <mxGeometry x="335" y="94" width="20" height="20" as="geometry" />
        </mxCell>
        <mxCell id="AgTzRdXakAWjJgixMaLe-8" value="" style="endArrow=classic;html=1;rounded=0;" edge="1" parent="1">
          <mxGeometry width="50" height="50" relative="1" as="geometry">
            <mxPoint x="355" y="127" as="sourcePoint" />
            <mxPoint x="435" y="127" as="targetPoint" />
          </mxGeometry>
        </mxCell>
        <mxCell id="AgTzRdXakAWjJgixMaLe-9" value="&lt;b&gt;&lt;font face=&quot;Verdana&quot;&gt;C&lt;/font&gt;&lt;/b&gt;" style="rounded=1;whiteSpace=wrap;html=1;fillColor=#fff2cc;strokeColor=#d6b656;" vertex="1" parent="1">
          <mxGeometry x="335" y="117" width="20" height="20" as="geometry" />
        </mxCell>
        <mxCell id="AgTzRdXakAWjJgixMaLe-10" value="" style="endArrow=classic;html=1;rounded=0;" edge="1" parent="1">
          <mxGeometry width="50" height="50" relative="1" as="geometry">
            <mxPoint x="355" y="150" as="sourcePoint" />
            <mxPoint x="435" y="150" as="targetPoint" />
          </mxGeometry>
        </mxCell>
        <mxCell id="AgTzRdXakAWjJgixMaLe-11" value="&lt;b&gt;&lt;font face=&quot;Verdana&quot;&gt;A&lt;/font&gt;&lt;/b&gt;" style="rounded=1;whiteSpace=wrap;html=1;fillColor=#fff2cc;strokeColor=#d6b656;" vertex="1" parent="1">
          <mxGeometry x="335" y="140" width="20" height="20" as="geometry" />
        </mxCell>
        <mxCell id="AgTzRdXakAWjJgixMaLe-12" value="" style="endArrow=classic;html=1;rounded=0;" edge="1" parent="1">
          <mxGeometry width="50" height="50" relative="1" as="geometry">
            <mxPoint x="355" y="173" as="sourcePoint" />
            <mxPoint x="435" y="173" as="targetPoint" />
          </mxGeometry>
        </mxCell>
        <mxCell id="AgTzRdXakAWjJgixMaLe-13" value="&lt;b&gt;&lt;font face=&quot;Verdana&quot;&gt;B&lt;/font&gt;&lt;/b&gt;" style="rounded=1;whiteSpace=wrap;html=1;fillColor=#fff2cc;strokeColor=#d6b656;" vertex="1" parent="1">
          <mxGeometry x="335" y="163" width="20" height="20" as="geometry" />
        </mxCell>
        <mxCell id="AgTzRdXakAWjJgixMaLe-14" value="" style="endArrow=classic;html=1;rounded=0;" edge="1" parent="1">
          <mxGeometry width="50" height="50" relative="1" as="geometry">
            <mxPoint x="355" y="196" as="sourcePoint" />
            <mxPoint x="435" y="196" as="targetPoint" />
          </mxGeometry>
        </mxCell>
        <mxCell id="AgTzRdXakAWjJgixMaLe-15" value="&lt;b&gt;&lt;font face=&quot;Verdana&quot;&gt;D&lt;/font&gt;&lt;/b&gt;" style="rounded=1;whiteSpace=wrap;html=1;fillColor=#fff2cc;strokeColor=#d6b656;" vertex="1" parent="1">
          <mxGeometry x="335" y="186" width="20" height="20" as="geometry" />
        </mxCell>
        <mxCell id="AgTzRdXakAWjJgixMaLe-16" value="" style="endArrow=classic;html=1;rounded=0;" edge="1" parent="1">
          <mxGeometry width="50" height="50" relative="1" as="geometry">
            <mxPoint x="355" y="219" as="sourcePoint" />
            <mxPoint x="435" y="219" as="targetPoint" />
          </mxGeometry>
        </mxCell>
        <mxCell id="AgTzRdXakAWjJgixMaLe-17" value="&lt;b&gt;&lt;font face=&quot;Verdana&quot;&gt;B&lt;/font&gt;&lt;/b&gt;" style="rounded=1;whiteSpace=wrap;html=1;fillColor=#fff2cc;strokeColor=#d6b656;" vertex="1" parent="1">
          <mxGeometry x="335" y="209" width="20" height="20" as="geometry" />
        </mxCell>
        <mxCell id="AgTzRdXakAWjJgixMaLe-18" value="" style="endArrow=classic;html=1;rounded=0;" edge="1" parent="1">
          <mxGeometry width="50" height="50" relative="1" as="geometry">
            <mxPoint x="355" y="242" as="sourcePoint" />
            <mxPoint x="435" y="242" as="targetPoint" />
          </mxGeometry>
        </mxCell>
        <mxCell id="AgTzRdXakAWjJgixMaLe-19" value="&lt;b&gt;&lt;font face=&quot;Verdana&quot;&gt;A&lt;/font&gt;&lt;/b&gt;" style="rounded=1;whiteSpace=wrap;html=1;fillColor=#fff2cc;strokeColor=#d6b656;" vertex="1" parent="1">
          <mxGeometry x="335" y="232" width="20" height="20" as="geometry" />
        </mxCell>
        <mxCell id="AgTzRdXakAWjJgixMaLe-20" value="" style="endArrow=classic;html=1;rounded=0;" edge="1" parent="1">
          <mxGeometry width="50" height="50" relative="1" as="geometry">
            <mxPoint x="355" y="265" as="sourcePoint" />
            <mxPoint x="435" y="265" as="targetPoint" />
          </mxGeometry>
        </mxCell>
        <mxCell id="AgTzRdXakAWjJgixMaLe-21" value="&lt;b&gt;&lt;font face=&quot;Verdana&quot;&gt;D&lt;/font&gt;&lt;/b&gt;" style="rounded=1;whiteSpace=wrap;html=1;fillColor=#fff2cc;strokeColor=#d6b656;" vertex="1" parent="1">
          <mxGeometry x="335" y="255" width="20" height="20" as="geometry" />
        </mxCell>
        <mxCell id="AgTzRdXakAWjJgixMaLe-22" value="" style="endArrow=classic;html=1;rounded=0;" edge="1" parent="1">
          <mxGeometry width="50" height="50" relative="1" as="geometry">
            <mxPoint x="355" y="288" as="sourcePoint" />
            <mxPoint x="435" y="288" as="targetPoint" />
          </mxGeometry>
        </mxCell>
        <mxCell id="AgTzRdXakAWjJgixMaLe-23" value="&lt;b&gt;&lt;font face=&quot;Verdana&quot;&gt;B&lt;/font&gt;&lt;/b&gt;" style="rounded=1;whiteSpace=wrap;html=1;fillColor=#fff2cc;strokeColor=#d6b656;" vertex="1" parent="1">
          <mxGeometry x="335" y="278" width="20" height="20" as="geometry" />
        </mxCell>
        <mxCell id="AgTzRdXakAWjJgixMaLe-24" value="" style="endArrow=classic;html=1;rounded=0;" edge="1" parent="1">
          <mxGeometry width="50" height="50" relative="1" as="geometry">
            <mxPoint x="355" y="311" as="sourcePoint" />
            <mxPoint x="435" y="311" as="targetPoint" />
          </mxGeometry>
        </mxCell>
        <mxCell id="AgTzRdXakAWjJgixMaLe-25" value="&lt;b&gt;&lt;font face=&quot;Verdana&quot;&gt;B&lt;/font&gt;&lt;/b&gt;" style="rounded=1;whiteSpace=wrap;html=1;fillColor=#fff2cc;strokeColor=#d6b656;" vertex="1" parent="1">
          <mxGeometry x="335" y="301" width="20" height="20" as="geometry" />
        </mxCell>
        <mxCell id="AgTzRdXakAWjJgixMaLe-26" value="" style="endArrow=classic;html=1;rounded=0;" edge="1" parent="1">
          <mxGeometry width="50" height="50" relative="1" as="geometry">
            <mxPoint x="355" y="334" as="sourcePoint" />
            <mxPoint x="435" y="334" as="targetPoint" />
          </mxGeometry>
        </mxCell>
        <mxCell id="AgTzRdXakAWjJgixMaLe-27" value="&lt;b&gt;&lt;font face=&quot;Verdana&quot;&gt;D&lt;/font&gt;&lt;/b&gt;" style="rounded=1;whiteSpace=wrap;html=1;fillColor=#fff2cc;strokeColor=#d6b656;" vertex="1" parent="1">
          <mxGeometry x="335" y="324" width="20" height="20" as="geometry" />
        </mxCell>
        <mxCell id="AgTzRdXakAWjJgixMaLe-28" value="" style="endArrow=classic;html=1;rounded=0;" edge="1" parent="1">
          <mxGeometry width="50" height="50" relative="1" as="geometry">
            <mxPoint x="355" y="357" as="sourcePoint" />
            <mxPoint x="435" y="357" as="targetPoint" />
          </mxGeometry>
        </mxCell>
        <mxCell id="AgTzRdXakAWjJgixMaLe-29" value="&lt;b&gt;&lt;font face=&quot;Verdana&quot;&gt;C&lt;/font&gt;&lt;/b&gt;" style="rounded=1;whiteSpace=wrap;html=1;fillColor=#fff2cc;strokeColor=#d6b656;" vertex="1" parent="1">
          <mxGeometry x="335" y="347" width="20" height="20" as="geometry" />
        </mxCell>
        <mxCell id="AgTzRdXakAWjJgixMaLe-30" value="" style="endArrow=classic;html=1;rounded=0;" edge="1" parent="1">
          <mxGeometry width="50" height="50" relative="1" as="geometry">
            <mxPoint x="355" y="380" as="sourcePoint" />
            <mxPoint x="435" y="380" as="targetPoint" />
          </mxGeometry>
        </mxCell>
        <mxCell id="AgTzRdXakAWjJgixMaLe-31" value="&lt;b&gt;&lt;font face=&quot;Verdana&quot;&gt;A&lt;/font&gt;&lt;/b&gt;" style="rounded=1;whiteSpace=wrap;html=1;fillColor=#fff2cc;strokeColor=#d6b656;" vertex="1" parent="1">
          <mxGeometry x="335" y="370" width="20" height="20" as="geometry" />
        </mxCell>
        <mxCell id="AgTzRdXakAWjJgixMaLe-32" value="" style="endArrow=classic;html=1;rounded=0;" edge="1" parent="1">
          <mxGeometry width="50" height="50" relative="1" as="geometry">
            <mxPoint x="355" y="403" as="sourcePoint" />
            <mxPoint x="435" y="403" as="targetPoint" />
          </mxGeometry>
        </mxCell>
        <mxCell id="AgTzRdXakAWjJgixMaLe-33" value="&lt;b&gt;&lt;font face=&quot;Verdana&quot;&gt;B&lt;/font&gt;&lt;/b&gt;" style="rounded=1;whiteSpace=wrap;html=1;fillColor=#fff2cc;strokeColor=#d6b656;" vertex="1" parent="1">
          <mxGeometry x="335" y="393" width="20" height="20" as="geometry" />
        </mxCell>
        <mxCell id="AgTzRdXakAWjJgixMaLe-34" value="" style="endArrow=classic;html=1;rounded=0;" edge="1" parent="1">
          <mxGeometry width="50" height="50" relative="1" as="geometry">
            <mxPoint x="355" y="426" as="sourcePoint" />
            <mxPoint x="435" y="426" as="targetPoint" />
          </mxGeometry>
        </mxCell>
        <mxCell id="AgTzRdXakAWjJgixMaLe-35" value="&lt;b&gt;&lt;font face=&quot;Verdana&quot;&gt;D&lt;/font&gt;&lt;/b&gt;" style="rounded=1;whiteSpace=wrap;html=1;fillColor=#fff2cc;strokeColor=#d6b656;" vertex="1" parent="1">
          <mxGeometry x="335" y="416" width="20" height="20" as="geometry" />
        </mxCell>
        <mxCell id="AgTzRdXakAWjJgixMaLe-38" value="" style="endArrow=classic;html=1;rounded=0;" edge="1" parent="1">
          <mxGeometry width="50" height="50" relative="1" as="geometry">
            <mxPoint x="445" y="173" as="sourcePoint" />
            <mxPoint x="525" y="173" as="targetPoint" />
          </mxGeometry>
        </mxCell>
        <mxCell id="AgTzRdXakAWjJgixMaLe-40" value="Buffer size: 3" style="shape=hexagon;perimeter=hexagonPerimeter2;whiteSpace=wrap;html=1;fixedSize=1;" vertex="1" parent="1">
          <mxGeometry x="486" y="106" width="99" height="27" as="geometry" />
        </mxCell>
        <mxCell id="AgTzRdXakAWjJgixMaLe-41" value="&lt;b&gt;&lt;font face=&quot;Verdana&quot;&gt;A&lt;/font&gt;&lt;/b&gt;" style="rounded=1;whiteSpace=wrap;html=1;fillColor=#fff2cc;strokeColor=#d6b656;" vertex="1" parent="1">
          <mxGeometry x="448" y="150" width="20" height="20" as="geometry" />
        </mxCell>
        <mxCell id="AgTzRdXakAWjJgixMaLe-42" value="&lt;b&gt;&lt;font face=&quot;Verdana&quot;&gt;B&lt;/font&gt;&lt;/b&gt;" style="rounded=1;whiteSpace=wrap;html=1;fillColor=#fff2cc;strokeColor=#d6b656;" vertex="1" parent="1">
          <mxGeometry x="471" y="150" width="20" height="20" as="geometry" />
        </mxCell>
        <mxCell id="AgTzRdXakAWjJgixMaLe-43" value="&lt;b&gt;&lt;font face=&quot;Verdana&quot;&gt;C&lt;/font&gt;&lt;/b&gt;" style="rounded=1;whiteSpace=wrap;html=1;fillColor=#fff2cc;strokeColor=#d6b656;" vertex="1" parent="1">
          <mxGeometry x="494" y="150" width="20" height="20" as="geometry" />
        </mxCell>
        <mxCell id="AgTzRdXakAWjJgixMaLe-44" value="" style="endArrow=classic;html=1;rounded=0;" edge="1" parent="1">
          <mxGeometry width="50" height="50" relative="1" as="geometry">
            <mxPoint x="445" y="242" as="sourcePoint" />
            <mxPoint x="525" y="242" as="targetPoint" />
          </mxGeometry>
        </mxCell>
        <mxCell id="AgTzRdXakAWjJgixMaLe-45" value="&lt;b&gt;&lt;font face=&quot;Verdana&quot;&gt;D&lt;/font&gt;&lt;/b&gt;" style="rounded=1;whiteSpace=wrap;html=1;fillColor=#fff2cc;strokeColor=#d6b656;" vertex="1" parent="1">
          <mxGeometry x="448" y="219" width="20" height="20" as="geometry" />
        </mxCell>
        <mxCell id="AgTzRdXakAWjJgixMaLe-46" value="&lt;b&gt;&lt;font face=&quot;Verdana&quot;&gt;B&lt;/font&gt;&lt;/b&gt;" style="rounded=1;whiteSpace=wrap;html=1;fillColor=#fff2cc;strokeColor=#d6b656;" vertex="1" parent="1">
          <mxGeometry x="471" y="219" width="20" height="20" as="geometry" />
        </mxCell>
        <mxCell id="AgTzRdXakAWjJgixMaLe-47" value="&lt;b&gt;&lt;font face=&quot;Verdana&quot;&gt;A&lt;/font&gt;&lt;/b&gt;" style="rounded=1;whiteSpace=wrap;html=1;fillColor=#fff2cc;strokeColor=#d6b656;" vertex="1" parent="1">
          <mxGeometry x="494" y="219" width="20" height="20" as="geometry" />
        </mxCell>
        <mxCell id="AgTzRdXakAWjJgixMaLe-48" value="" style="endArrow=classic;html=1;rounded=0;" edge="1" parent="1">
          <mxGeometry width="50" height="50" relative="1" as="geometry">
            <mxPoint x="445" y="357" as="sourcePoint" />
            <mxPoint x="525" y="357" as="targetPoint" />
          </mxGeometry>
        </mxCell>
        <mxCell id="AgTzRdXakAWjJgixMaLe-49" value="&lt;b&gt;&lt;font face=&quot;Verdana&quot;&gt;D&lt;/font&gt;&lt;/b&gt;" style="rounded=1;whiteSpace=wrap;html=1;fillColor=#fff2cc;strokeColor=#d6b656;" vertex="1" parent="1">
          <mxGeometry x="448" y="334" width="20" height="20" as="geometry" />
        </mxCell>
        <mxCell id="AgTzRdXakAWjJgixMaLe-50" value="&lt;b&gt;&lt;font face=&quot;Verdana&quot;&gt;B&lt;/font&gt;&lt;/b&gt;" style="rounded=1;whiteSpace=wrap;html=1;fillColor=#fff2cc;strokeColor=#d6b656;" vertex="1" parent="1">
          <mxGeometry x="471" y="334" width="20" height="20" as="geometry" />
        </mxCell>
        <mxCell id="AgTzRdXakAWjJgixMaLe-51" value="&lt;b&gt;&lt;font face=&quot;Verdana&quot;&gt;C&lt;/font&gt;&lt;/b&gt;" style="rounded=1;whiteSpace=wrap;html=1;fillColor=#fff2cc;strokeColor=#d6b656;" vertex="1" parent="1">
          <mxGeometry x="494" y="334" width="20" height="20" as="geometry" />
        </mxCell>
        <mxCell id="AgTzRdXakAWjJgixMaLe-52" value="" style="endArrow=classic;html=1;rounded=0;" edge="1" parent="1">
          <mxGeometry width="50" height="50" relative="1" as="geometry">
            <mxPoint x="445" y="426" as="sourcePoint" />
            <mxPoint x="525" y="426" as="targetPoint" />
          </mxGeometry>
        </mxCell>
        <mxCell id="AgTzRdXakAWjJgixMaLe-53" value="&lt;b&gt;&lt;font face=&quot;Verdana&quot;&gt;A&lt;/font&gt;&lt;/b&gt;" style="rounded=1;whiteSpace=wrap;html=1;fillColor=#fff2cc;strokeColor=#d6b656;" vertex="1" parent="1">
          <mxGeometry x="448" y="403" width="20" height="20" as="geometry" />
        </mxCell>
        <mxCell id="AgTzRdXakAWjJgixMaLe-54" value="&lt;b&gt;&lt;font face=&quot;Verdana&quot;&gt;B&lt;/font&gt;&lt;/b&gt;" style="rounded=1;whiteSpace=wrap;html=1;fillColor=#fff2cc;strokeColor=#d6b656;" vertex="1" parent="1">
          <mxGeometry x="471" y="403" width="20" height="20" as="geometry" />
        </mxCell>
        <mxCell id="AgTzRdXakAWjJgixMaLe-55" value="&lt;b&gt;&lt;font face=&quot;Verdana&quot;&gt;D&lt;/font&gt;&lt;/b&gt;" style="rounded=1;whiteSpace=wrap;html=1;fillColor=#fff2cc;strokeColor=#d6b656;" vertex="1" parent="1">
          <mxGeometry x="494" y="403" width="20" height="20" as="geometry" />
        </mxCell>
      </root>
    </mxGraphModel>
  </diagram>
</mxfile>
